<svg xmlns="http://www.w3.org/2000/svg" width="66" height="20" viewBox="0 0 66 20">
    <path fill="#FFF" fill-rule="nonzero" d="M65.116 17.11l-.348-.402c-.096-.112-.192-.227-.297-.344h-.018v-.02l-4.233-4.913c.286-.336 5.659-6.564 5.659-6.564h-8.61s-.317.362-.552.636v-.636H46.98l-.635-1.585h-3.414C42.445 1.372 40.736 0 38.76 0c-2.138 0-3.91 1.562-4.26 3.608-.06-.013-6.589-1.298-6.589-1.298v2.6h-8.043c-1.281-.904-2.763-1.388-4.301-1.388a7.319 7.319 0 0 0-3.215.751V2.648h-7.08v1.267H0v14.694L7.085 20v-1.369h5.267v-.852a7.376 7.376 0 0 0 3.215.747 7.45 7.45 0 0 0 5.384-2.292v2.448l6.621 1.302v-8.228h.34v6.875h18.784v-.633l10.02-.005v-.633c.236.268.553.633.553.633h8.611l-.764-.883zM34.59 5.41c.14.513.371 1.007.704 1.458v5.246h-.704V5.409zm23.113 11.785s-1.056-1.22-1.738-2.014v2.014l-9.616.004s-.4-1-.416-1.036v1.671H28.756v-6.883h-1.967v8.062l-5.008-.984v-4.482a6.698 6.698 0 0 1-6.2 4.181 6.672 6.672 0 0 1-4.028-1.35v1.456H6.276v1.193l-5.46-1.073V4.73h5.275V3.462h5.462v2.222a6.673 6.673 0 0 1 4.028-1.347c1.531 0 2.944.516 4.075 1.385h9.1V3.297l5.058.995v8.64h2.329v-5.65h.736a3.529 3.529 0 0 1-1.602-2.949A3.53 3.53 0 0 1 38.8.81c1.863 0 3.39 1.45 3.515 3.283h3.53l.634 1.586h9.484v2.015l1.738-2.015h6.473l-4.964 5.757c.894 1.04 4.966 5.759 4.966 5.759h-6.475zM10.434 8.062V4.578H7.207v4.947H5.158V5.849H1.933v11.184l3.225.634V13.11h2.05v3.606h3.226V14a5.902 5.902 0 0 1-.802-2.965c0-1.082.297-2.095.802-2.972zm26.826 8.653h3.085V8.402H37.26v8.313zM32.696 5.212l-2.823-.555v12.058h6.755v-2.661h-3.932V5.212zM47.2 10.416l-2.11-5.203h-3.625v11.502h3.351v-6.282l2.292 5.646h3.443V6.797h-3.35v3.619zm14.537-3.619h-3.523l-3.366 3.909V6.797h-3.17v9.277h3.17v-3.9l3.366 3.9h3.52l-4-4.638 4.003-4.639zM20.288 8.413a5.391 5.391 0 0 0-4.707-2.774 5.399 5.399 0 0 0-5.39 5.395 5.396 5.396 0 0 0 5.39 5.389c2.97 0 5.389-2.42 5.389-5.389 0-.415-.054-.814-.14-1.204h2.074v7.275l2.765.546V9.83h3.087V6.838h-8.468v1.574zm-4.707 4.666a2.044 2.044 0 0 1-2.045-2.045 2.046 2.046 0 1 1 2.045 2.045zM40.173 2.766c.224.105.571.32.625.355.218.16.297.002.19-.203-.608-1.146-1.925-1.25-1.925-1.25-.17-.007.008.06.008.06.59.239.904.615.904.615-1.21-.566-1.99-.6-2.191-.513-.093.051.046.09.203.13 2.007.56 2.67 2.1 2.67 2.1-2.087-1.942-3.648-1.794-3.801-1.617-.05.06.08.1.286.172 2.172.867 2.77 2.408 2.77 2.408-2.093-2.004-3.61-1.984-3.613-1.77.004.1.231.156.368.225 1.752.796 2.328 2.128 2.328 2.128-1.085-1.208-2.53-1.466-2.53-1.466-.218-.053-.406-.042-.383.047.031.1.13.117.375.294.875.6 1.225 1.249 1.225 1.249-.351-.287-.72-.469-.992-.521-.382-.079-.459.028-.387.212.07.18.288.584.714.951.087.077.131.108.193.155.16.117.33.203.087-.032-.037-.037-.076-.086-.126-.142-.113-.125-.427-.568-.357-.644.068-.071.573.168 1.27.85.132.133.234.232.356.238.336.031.23-.434.23-.434-.143-.6-.302-.743-.302-.743.561.387.936.85.936.85.114.126.268.358.451.327.29-.044.275-.375.192-.635-.1-.287-.483-.969-.576-1.057.505.453.604.602.752.77.15.167.367.38.568.277.365-.184.107-.765.107-.765-.3-.886-.833-1.3-.833-1.3.388.254.753.55.865.635.157.128.333.249.472.166.26-.159-.05-.748-.05-.748-.49-1.013-.962-1.309-1.08-1.374z"/>
</svg>
