<?xml version="1.0" encoding="utf-8"?>
<!-- Generator: Adobe Illustrator 21.0.0, SVG Export Plug-In . SVG Version: 6.00 Build 0)  -->
<svg version="1.1" id="Layer_1" xmlns="http://www.w3.org/2000/svg" xmlns:xlink="http://www.w3.org/1999/xlink" x="0px" y="0px"
	 viewBox="0 0 200 80" style="enable-background:new 0 0 200 80;" xml:space="preserve">
<style type="text/css">
	.st0{fill:#293895;}
	.st1{fill:#8CE600;}
</style>
<g>
	<polygon class="st0" points="158.7,78.6 147.4,78.6 147.4,40.7 158.7,40.7 	"/>
	<path class="st0" d="M189.4,51.3l-0.6-0.3c-3.8-2.1-7.8-3.3-11-3.3c-3.2,0-5.2,1-5.2,2.6s0.4,2,6.8,4.5c5.3,2.1,8,3.8,10,6.3
		c1.3,1.7,1.9,3.7,1.9,6.1c0,7.6-5.5,12-15.3,12c-4.7,0-10.6-1.2-13.4-2.8v-8.3c4.6,2.4,8.4,3.5,12,3.5c3.5,0,5.7-1,5.7-2.9
		c0-1.6-1-2.4-4.4-3.9l-2.8-1.1c-1.4-0.6-2.4-1.1-3-1.3c-1.2-0.5-2.3-1.1-3.3-1.6c-3.1-2-5-5.2-5-9c0-7,6.2-11.6,15.4-11.6
		c4.5,0,8.3,0.8,11.6,2.5l0.6,0.3L189.4,51.3z"/>
	<path class="st0" d="M102.8,71.5l0-18.6c0-3.6-0.3-5.3-1.1-6.9c-2.1-3.8-7.5-6.1-14.8-6.1c-2.6,0-6,0.4-8.3,1.1
		c-2.5,0.7-5.9,2.2-8.1,3.5v9.6c3.8-3.9,9.1-6.3,13.8-6.3c4.5,0,6.5,1.9,6.5,5.9v0.5l-0.5,0.2l-1.8,0.6l-2.3,0.7
		c-7.2,2.3-9.3,3.1-11.6,4.2c-3.8,2.1-6,5.6-6,9.3C68.5,74.8,73,79,79,79c4.1,0,7.5-1.1,11.6-3.7l0.8-0.5c0.4,3.4,2.4,4.3,11.6,3.7
		h13.3l7.5-11.2l7.8,11.2H146L131.2,59l13.5-18.3h-14.4l-6.5,10.1l-6.9-10.1h-14.5L116.6,59L106.4,73
		C105.2,74.5,102.8,73.5,102.8,71.5 M90.9,69.2c-1.8,1.7-4.3,2.8-6.3,2.8c-2.4,0-4.1-1.7-4.1-4c0-2.7,2-4.6,6.2-6.2l3.1-1.2l1-0.4
		C90.9,60.1,90.9,69.2,90.9,69.2z"/>
	<path class="st0" d="M18,55.9c0-2.3,1.5-7.3,6-7.3c4,0,5.8,3,5.7,9.6l0,20.4h12.1V56c0-2.3,1.6-7.3,6.1-7.3c4,0,5.7,3,5.7,9.6
		l0,20.3h12V55.9c0-3.8-0.5-6.5-1.4-8.4c-2.3-4.6-6.7-7.3-12.4-7.3c-8.4,0-11.5,8-11.5,8c-2.7-5.9-7.3-8-13.4-8
		c-4.6,0-7.5,3.1-9,5.9v-5.4H6.2l0,37.8l11.9,0L18,55.9z"/>
	<path class="st1" d="M138.7,23c1.8,0.3,4.1,1.5,6.3,3.3c0,0-2.2-4.1-7.8-8c-1.6-1.1-2.2-1.2-2.4-1.9c-0.1-0.6,1.1-0.7,2.4-0.3
		c0,0,9.2,1.7,16.1,9.3c0,0-3.7-8.5-14.8-13.6c-0.9-0.4-2.3-0.8-2.3-1.4c0-1.4,9.7-1.5,23,11.3c0,0-3.8-9.8-17.6-15.3
		c-1.3-0.5-2.1-0.7-1.8-1.1c1-1.1,10.9-2.1,24.2,10.3c0,0-4.2-9.8-17-13.4c-1-0.2-1.9-0.5-1.3-0.8c1.3-0.5,6.2-0.3,13.9,3.3
		c0,0-2-2.4-5.7-3.9c0,0-1.1-0.4-0.1-0.4c0,0,8.4,0.7,12.3,8c0.7,1.3,0.2,2.3-1.2,1.3c-0.3-0.2-2.8-1.7-4.2-2.4c0,0,3.4,1.4,7,8.8
		c0,0,2,3.8,0.3,4.8c-0.9,0.5-2-0.2-3-1c-0.7-0.6-3-2.5-5.5-4.1c0,0,3.4,2.6,5.3,8.3c0,0,1.6,3.7-0.7,4.9c-1.3,0.6-2.6-0.7-3.6-1.8
		c-0.9-1.1-1.6-2-4.8-4.9c0.6,0.6,3.1,4.9,3.7,6.7c0.5,1.6,0.7,3.7-1.2,4c-1.2,0.2-2.2-1.3-2.9-2.1c0,0-2.3-3-6-5.4
		c0,0,1,0.9,1.9,4.7c0,0,0.6,3-1.5,2.8c-0.8-0.1-1.4-0.7-2.3-1.5c-4.4-4.3-7.6-5.8-8.1-5.4c-0.5,0.5,1.5,3.3,2.3,4.1
		c0.3,0.4,0.5,0.7,0.8,0.9c1.6,1.5,0.5,1-0.5,0.2c-0.4-0.3-0.7-0.5-1.3-1c-2.7-2.3-4.1-4.9-4.6-6.1C135.8,23.2,136.4,22.5,138.7,23"
		/>
</g>
</svg>
